<?xml version="1.0" encoding="utf-8"?>
<!-- Generator: Adobe Illustrator 16.0.0, SVG Export Plug-In . SVG Version: 6.00 Build 0)  -->
<!DOCTYPE svg PUBLIC "-//W3C//DTD SVG 1.1//EN" "http://www.w3.org/Graphics/SVG/1.1/DTD/svg11.dtd">
<svg version="1.1" id="Layer_1" xmlns="http://www.w3.org/2000/svg" xmlns:xlink="http://www.w3.org/1999/xlink" x="0px" y="0px"
	 width="80px" height="80px" viewBox="0 0 60 60" enable-background="new 0 0 60 60" xml:space="preserve">
<path fill="#F15A29" d="M60,48c0,6.628-5.373,12-12,12H12C5.373,60,0,54.628,0,48V12C0,5.373,5.373,0,12,0h36
	c6.627,0,12,5.373,12,12V48z"/>
<g id="s">
	<path fill="#e15347" d="M19.184,18.977c7.216,0,11.467,4.298,11.467,11.934c0,7.632-4.251,12.113-11.467,12.113H10V18.977H19.184z
		 M15.032,38.859h3.553c4.499,0,6.933-2.734,6.933-7.934c0-5.032-2.5-7.799-6.933-7.799h-3.553V38.859z"/>
	<path fill="#D32A27" d="M43.668,18.977C48.6,18.977,52,22.26,52,27.209c0,4.934-3.517,8.231-8.581,8.231h-4.501v7.583h-5.035
		V18.977H43.668z M38.918,31.51h3.4c2.881,0,4.564-1.534,4.564-4.284c0-2.732-1.663-4.267-4.551-4.267h-3.414V31.51z"/>
</g>
<g id="w">
	<path fill="#F1F2F2" d="M18.184,17.977c7.216,0,11.467,4.298,11.467,11.934c0,7.632-4.251,12.113-11.467,12.113H9V17.977H18.184z
		 M14.032,37.859h3.553c4.499,0,6.933-2.734,6.933-7.934c0-5.032-2.5-7.799-6.933-7.799h-3.553V37.859z"/>
	<path fill="#F1F2F2" d="M42.668,17.977C47.6,17.977,51,21.26,51,26.209c0,4.934-3.517,8.231-8.581,8.231h-4.501v7.583h-5.035
		V17.977H42.668z M37.918,30.51h3.4c2.881,0,4.564-1.534,4.564-4.284c0-2.732-1.663-4.267-4.551-4.267h-3.414V30.51z"/>
</g>
</svg>
